<svg width="27.000000" height="36.937134" viewBox="0 0 27 36.9371" fill="none" xmlns="http://www.w3.org/2000/svg" xmlns:xlink="http://www.w3.org/1999/xlink">
	<desc>
			Created with Pixso.
	</desc>
	<defs/>
	<path id="Ellipse 126" d="M24.07 24.41C24.07 30.79 18.9 35.97 12.52 35.97C6.13 35.97 0.96 30.79 0.96 24.41C0.96 18.03 6.13 12.85 12.52 12.85C18.9 12.85 24.07 18.03 24.07 24.41Z" fill="#FFAC2F" fill-opacity="1.000000" fill-rule="evenodd"/>
	<path id="Ellipse 126 (Stroke)" d="M25.04 24.41C25.04 31.33 19.43 36.93 12.52 36.93C5.6 36.93 0 31.33 0 24.41C0 17.5 5.6 11.89 12.52 11.89C19.43 11.89 25.04 17.5 25.04 24.41ZM12.52 35.97C18.9 35.97 24.07 30.79 24.07 24.41C24.07 18.03 18.9 12.85 12.52 12.85C6.13 12.85 0.96 18.03 0.96 24.41C0.96 30.79 6.13 35.97 12.52 35.97Z" fill="#884A28" fill-opacity="1.000000" fill-rule="evenodd"/>
	<path id="Subtract" d="M12.52 35.97C18.9 35.97 24.07 30.79 24.07 24.41C24.07 18.03 18.9 12.85 12.52 12.85C12.06 12.85 11.6 12.88 11.16 12.93C15.52 13.51 18.88 17.25 18.88 21.76C18.88 26.68 14.89 30.67 9.97 30.67C5.33 30.67 1.52 27.13 1.1 22.6C1.01 23.19 0.96 23.8 0.96 24.41C0.96 30.79 6.13 35.97 12.52 35.97Z" fill="#FF862F" fill-opacity="1.000000" fill-rule="evenodd"/>
	<path id="Ellipse 141" d="M21.59 12.67C21.59 12.67 19.39 8.91 17.15 8.81C14.91 8.71 13.01 10.66 13.01 10.66C13.01 10.66 14.74 12.76 16.97 12.86C19.21 12.96 21.59 12.67 21.59 12.67Z" fill="#64AC1D" fill-opacity="1.000000" fill-rule="evenodd"/>
	<path id="Ellipse 141 (Stroke)" d="M22.42 12.18L21.59 12.67L21.71 13.63C22.03 13.59 22.31 13.39 22.45 13.1C22.6 12.81 22.58 12.46 22.42 12.18ZM13.01 10.66C12.32 9.99 12.32 9.99 12.32 9.99L12.32 9.98L12.33 9.98L12.33 9.97C12.34 9.97 12.35 9.96 12.36 9.95C12.38 9.93 12.4 9.91 12.44 9.87C12.5 9.81 12.6 9.72 12.72 9.62C12.96 9.42 13.3 9.15 13.73 8.88C14.56 8.36 15.79 7.79 17.19 7.85C18.01 7.88 18.74 8.25 19.34 8.67C19.95 9.09 20.49 9.64 20.94 10.14C21.38 10.66 21.75 11.16 22.01 11.54C22.14 11.73 22.24 11.88 22.31 12C22.34 12.05 22.37 12.1 22.39 12.13C22.4 12.14 22.41 12.16 22.41 12.17L22.42 12.18L22.42 12.18L22.42 12.18L22.42 12.18C22.42 12.18 22.42 12.18 21.59 12.67C21.71 13.63 21.71 13.63 21.71 13.63L21.7 13.63L21.67 13.63C21.66 13.63 21.63 13.63 21.59 13.64C21.52 13.65 21.41 13.66 21.28 13.67C21.01 13.7 20.64 13.73 20.19 13.76C19.29 13.83 18.1 13.88 16.93 13.83C15.53 13.76 14.35 13.08 13.57 12.49C13.17 12.19 12.85 11.89 12.63 11.67C12.52 11.56 12.43 11.46 12.37 11.39C12.34 11.36 12.32 11.33 12.3 11.31C12.29 11.3 12.28 11.29 12.28 11.28L12.27 11.28L12.27 11.27L12.27 11.27C12.27 11.27 12.27 11.27 13.01 10.66ZM13.01 10.66L12.32 9.99C11.98 10.34 11.95 10.89 12.27 11.27L13.01 10.66ZM20.99 11.76C20.18 10.65 18.68 8.88 17.15 8.81C14.91 8.71 13.01 10.66 13.01 10.66C13.01 10.66 14.74 12.76 16.97 12.86C18.27 12.92 19.62 12.85 20.52 12.77C21.17 12.72 21.59 12.67 21.59 12.67C21.59 12.67 21.37 12.29 20.99 11.76Z" fill="#156319" fill-opacity="1.000000" fill-rule="evenodd"/>
	<path id="Ellipse 139" d="M24.35 3.85C24.35 3.85 21.7 8.51 18.88 10C16.05 11.49 12.42 10.14 12.42 10.14C12.42 10.14 13.36 6.38 16.18 4.89C19.01 3.4 24.35 3.85 24.35 3.85Z" fill="#87D623" fill-opacity="1.000000" fill-rule="evenodd"/>
	<path id="Ellipse 139 (Stroke)" d="M25.18 4.33L24.35 3.85L24.43 2.89C24.75 2.92 25.05 3.11 25.2 3.4C25.35 3.69 25.35 4.04 25.18 4.33ZM23.26 3.8C23.93 3.82 24.35 3.85 24.35 3.85C24.35 3.85 24.14 4.22 23.78 4.78C22.85 6.22 20.91 8.93 18.88 10C16.05 11.49 12.42 10.14 12.42 10.14C12.42 10.14 13.36 6.38 16.18 4.89C18.21 3.82 21.55 3.75 23.26 3.8ZM12.42 10.14C11.48 9.91 11.48 9.91 11.48 9.91L11.48 9.9L11.49 9.9L11.49 9.89C11.49 9.88 11.5 9.86 11.5 9.84C11.51 9.81 11.52 9.76 11.54 9.7C11.58 9.58 11.63 9.41 11.7 9.21C11.85 8.8 12.07 8.24 12.39 7.63C13.02 6.42 14.07 4.91 15.73 4.04C17.35 3.19 19.58 2.92 21.28 2.85C22.16 2.81 22.94 2.82 23.5 2.84C23.78 2.85 24.01 2.86 24.17 2.87C24.25 2.88 24.31 2.88 24.36 2.89C24.38 2.89 24.4 2.89 24.41 2.89L24.42 2.89L24.43 2.89L24.43 2.89C24.43 2.89 24.43 2.89 24.35 3.85C25.18 4.33 25.18 4.33 25.18 4.33L25.18 4.33L25.18 4.33L25.17 4.35C25.17 4.36 25.16 4.37 25.15 4.39C25.13 4.43 25.1 4.48 25.05 4.55C24.97 4.69 24.85 4.88 24.7 5.12C24.4 5.6 23.97 6.25 23.44 6.95C22.42 8.31 20.94 10 19.33 10.85C17.67 11.73 15.83 11.75 14.47 11.58C13.79 11.5 13.2 11.37 12.78 11.26C12.57 11.2 12.4 11.15 12.28 11.11C12.22 11.09 12.18 11.08 12.14 11.06C12.13 11.06 12.11 11.05 12.1 11.05L12.09 11.05L12.09 11.04L12.08 11.04C12.08 11.04 12.08 11.04 12.42 10.14ZM11.48 9.91L12.42 10.14L12.08 11.04C11.62 10.87 11.36 10.38 11.48 9.91Z" fill="#156319" fill-opacity="1.000000" fill-rule="evenodd"/>
	<path id="Ellipse 128" d="M18.63 9.57C21.03 8.31 23.36 4.48 23.36 4.48C17.9 5.87 14.32 8.63 13.21 9.83C13.21 9.83 16.23 10.84 18.63 9.57Z" fill="#79C01E" fill-opacity="1.000000" fill-rule="evenodd"/>
	<path id="Vector 217" d="M8.16 7.63C9.14 8.04 11.55 11.89 12.22 13.85C12.28 14.01 12.73 13.84 12.68 13.7C12.41 11.89 11.31 7.56 10.11 6.11C8.7 6.2 8.16 7.23 8.16 7.63Z" fill="#8C5936" fill-opacity="1.000000" fill-rule="evenodd"/>
	<path id="Vector 217 (Stroke)" d="M7.78 8.52C7.42 8.36 7.19 8.01 7.19 7.62C7.2 7.11 7.48 6.53 7.91 6.08C8.39 5.59 9.1 5.21 10.05 5.15C10.36 5.13 10.65 5.26 10.85 5.5C11.24 5.96 11.57 6.6 11.86 7.27C12.16 7.95 12.43 8.72 12.66 9.49C13.13 10.99 13.48 12.55 13.63 13.51C13.74 14.04 13.4 14.41 13.29 14.51C13.13 14.66 12.95 14.75 12.81 14.8C12.67 14.84 12.47 14.89 12.23 14.87C12.01 14.85 11.5 14.72 11.31 14.16C11.01 13.29 10.29 11.91 9.5 10.68C9.11 10.07 8.72 9.52 8.38 9.12C8.2 8.91 8.06 8.75 7.94 8.64C7.83 8.55 7.78 8.52 7.78 8.52C7.78 8.52 7.78 8.52 7.78 8.52ZM12.68 13.7C12.68 13.7 12.68 13.69 12.68 13.69C12.65 13.49 12.61 13.25 12.55 12.98C12.47 12.55 12.36 12.06 12.23 11.54C11.74 9.55 10.95 7.12 10.11 6.11C9.39 6.15 8.9 6.44 8.59 6.77C8.53 6.83 8.48 6.89 8.44 6.95C8.24 7.21 8.16 7.47 8.16 7.63C8.87 7.92 10.32 10.01 11.33 11.89C11.56 12.32 11.77 12.75 11.94 13.14C12.04 13.36 12.13 13.58 12.2 13.77C12.2 13.8 12.21 13.82 12.22 13.85C12.28 14.01 12.73 13.84 12.68 13.7ZM11.72 13.82C11.73 13.88 11.74 13.94 11.76 14C11.75 13.95 11.74 13.89 11.73 13.84C11.73 13.83 11.73 13.83 11.72 13.82Z" fill="#583A24" fill-opacity="1.000000" fill-rule="evenodd"/>
	<path id="Ellipse 142" d="M10.43 6.28C10.69 6.64 10.39 7.29 9.76 7.74C9.14 8.19 8.42 8.26 8.17 7.91C7.91 7.55 8.21 6.89 8.83 6.44C9.46 5.99 10.17 5.92 10.43 6.28Z" fill="#C27A49" fill-opacity="1.000000" fill-rule="evenodd"/>
	<path id="Ellipse 127" d="M10.81 17.03C11.61 18.4 10.59 20.5 8.52 21.7C6.45 22.91 4.12 22.77 3.32 21.39C2.52 20.01 3.54 17.92 5.61 16.71C7.68 15.51 10.01 15.65 10.81 17.03Z" fill="#FFC671" fill-opacity="1.000000" fill-rule="evenodd"/>
	<path id="Vector 219 (Stroke)" d="M6.78 18.23C7.06 18.68 6.93 19.27 6.48 19.55C6.13 19.77 5.87 20.03 5.67 20.34C5.38 20.79 4.78 20.92 4.34 20.63C3.89 20.34 3.76 19.74 4.05 19.29C4.41 18.74 4.88 18.28 5.45 17.93C5.9 17.64 6.49 17.78 6.78 18.23Z" fill="#FFFFFF" fill-opacity="1.000000" fill-rule="evenodd"/>
</svg>
