<svg width="20.000000" height="27.360840" viewBox="0 0 20 27.3608" fill="none" xmlns="http://www.w3.org/2000/svg" xmlns:xlink="http://www.w3.org/1999/xlink">
	<desc>
			Created with Pixso.
	</desc>
	<defs/>
	<path id="Ellipse 126" d="M17.83 18.08C17.83 22.81 14 26.64 9.27 26.64C4.54 26.64 0.71 22.81 0.71 18.08C0.71 13.35 4.54 9.52 9.27 9.52C14 9.52 17.83 13.35 17.83 18.08Z" fill="#FFAC2F" fill-opacity="1.000000" fill-rule="evenodd"/>
	<path id="Ellipse 126 (Stroke)" d="M18.54 18.08C18.54 23.2 14.39 27.36 9.27 27.36C4.15 27.36 0 23.2 0 18.08C0 12.96 4.15 8.81 9.27 8.81C14.39 8.81 18.54 12.96 18.54 18.08ZM9.27 26.64C14 26.64 17.83 22.81 17.83 18.08C17.83 13.35 14 9.52 9.27 9.52C4.54 9.52 0.71 13.35 0.71 18.08C0.71 22.81 4.54 26.64 9.27 26.64Z" fill="#884A28" fill-opacity="1.000000" fill-rule="evenodd"/>
	<path id="Subtract" d="M9.27 26.64C14 26.64 17.83 22.81 17.83 18.08C17.83 13.35 14 9.52 9.27 9.52C8.93 9.52 8.59 9.54 8.26 9.58C11.49 10.01 13.98 12.77 13.98 16.12C13.98 19.76 11.03 22.72 7.38 22.72C3.95 22.72 1.13 20.09 0.81 16.74C0.74 17.18 0.71 17.63 0.71 18.08C0.71 22.81 4.54 26.64 9.27 26.64Z" fill="#FF862F" fill-opacity="1.000000" fill-rule="evenodd"/>
	<path id="Ellipse 141" d="M15.99 9.38C15.99 9.38 14.36 6.6 12.7 6.53C11.05 6.45 9.64 7.89 9.64 7.89C9.64 7.89 10.91 9.45 12.57 9.53C14.23 9.6 15.99 9.38 15.99 9.38Z" fill="#64AC1D" fill-opacity="1.000000" fill-rule="evenodd"/>
	<path id="Ellipse 141 (Stroke)" d="M16.61 9.02L15.99 9.38L16.08 10.09C16.32 10.06 16.52 9.92 16.63 9.7C16.74 9.48 16.73 9.23 16.61 9.02ZM9.64 7.89C9.13 7.4 9.13 7.4 9.13 7.4L9.13 7.39L9.13 7.39L9.14 7.39C9.14 7.38 9.15 7.38 9.15 7.37C9.17 7.36 9.19 7.34 9.21 7.31C9.26 7.27 9.33 7.2 9.42 7.13C9.6 6.98 9.85 6.78 10.17 6.58C10.78 6.19 11.7 5.77 12.73 5.81C13.34 5.84 13.88 6.11 14.33 6.42C14.78 6.74 15.18 7.14 15.51 7.51C15.84 7.89 16.11 8.27 16.3 8.55C16.4 8.68 16.47 8.8 16.52 8.88C16.55 8.93 16.57 8.96 16.58 8.98C16.59 8.99 16.6 9 16.6 9.01L16.6 9.02L16.61 9.02L16.61 9.02L16.61 9.02C16.61 9.02 16.61 9.02 15.99 9.38C16.08 10.09 16.08 10.09 16.08 10.09L16.07 10.09L16.05 10.09C16.04 10.1 16.02 10.1 15.99 10.1C15.94 10.11 15.86 10.12 15.76 10.13C15.56 10.15 15.28 10.17 14.95 10.19C14.29 10.24 13.41 10.28 12.54 10.24C11.5 10.19 10.63 9.69 10.05 9.25C9.76 9.03 9.52 8.81 9.35 8.64C9.27 8.56 9.21 8.49 9.16 8.44C9.14 8.41 9.12 8.39 9.11 8.38C9.1 8.37 9.1 8.36 9.09 8.36L9.09 8.35L9.09 8.35L9.08 8.35C9.08 8.35 9.08 8.35 9.64 7.89ZM9.64 7.89L9.13 7.4C8.87 7.66 8.85 8.07 9.08 8.35L9.64 7.89ZM15.55 8.71C14.95 7.88 13.83 6.58 12.7 6.53C11.05 6.45 9.64 7.89 9.64 7.89C9.64 7.89 10.91 9.45 12.57 9.53C13.53 9.57 14.53 9.51 15.2 9.46C15.68 9.42 15.99 9.38 15.99 9.38C15.99 9.38 15.83 9.1 15.55 8.71Z" fill="#156319" fill-opacity="1.000000" fill-rule="evenodd"/>
	<path id="Ellipse 139" d="M18.03 2.85C18.03 2.85 16.07 6.3 13.98 7.41C11.89 8.51 9.2 7.51 9.2 7.51C9.2 7.51 9.89 4.72 11.99 3.62C14.08 2.52 18.03 2.85 18.03 2.85Z" fill="#87D623" fill-opacity="1.000000" fill-rule="evenodd"/>
	<path id="Ellipse 139 (Stroke)" d="M18.65 3.2L18.03 2.85L18.09 2.14C18.34 2.16 18.55 2.3 18.66 2.52C18.78 2.73 18.77 2.99 18.65 3.2ZM17.23 2.81C17.72 2.83 18.03 2.85 18.03 2.85C18.03 2.85 17.88 3.12 17.61 3.54C16.92 4.61 15.49 6.61 13.98 7.41C11.89 8.51 9.2 7.51 9.2 7.51C9.2 7.51 9.89 4.72 11.99 3.62C13.49 2.83 15.96 2.78 17.23 2.81ZM9.2 7.51C8.51 7.34 8.51 7.34 8.51 7.34L8.51 7.33L8.51 7.33L8.51 7.32C8.51 7.31 8.51 7.3 8.52 7.29C8.52 7.27 8.53 7.23 8.55 7.19C8.57 7.1 8.61 6.97 8.67 6.82C8.77 6.52 8.94 6.1 9.18 5.65C9.64 4.76 10.42 3.64 11.65 2.99C12.85 2.36 14.5 2.16 15.76 2.11C16.41 2.08 16.99 2.09 17.41 2.1C17.62 2.11 17.79 2.12 17.9 2.13C17.96 2.13 18.01 2.13 18.04 2.14C18.06 2.14 18.07 2.14 18.08 2.14L18.09 2.14L18.09 2.14L18.09 2.14C18.09 2.14 18.09 2.14 18.03 2.85C18.65 3.2 18.65 3.2 18.65 3.2L18.65 3.21L18.65 3.21L18.65 3.22C18.64 3.22 18.64 3.24 18.63 3.25C18.61 3.28 18.59 3.32 18.56 3.37C18.5 3.47 18.41 3.61 18.3 3.79C18.07 4.14 17.75 4.63 17.36 5.14C16.6 6.16 15.51 7.41 14.32 8.04C13.09 8.69 11.72 8.7 10.72 8.58C10.21 8.52 9.78 8.42 9.47 8.34C9.31 8.3 9.19 8.26 9.1 8.23C9.05 8.21 9.02 8.2 8.99 8.19C8.98 8.19 8.97 8.19 8.96 8.18L8.95 8.18L8.95 8.18L8.95 8.18C8.95 8.18 8.95 8.18 9.2 7.51ZM8.51 7.34L9.2 7.51L8.95 8.18C8.61 8.05 8.42 7.69 8.51 7.34Z" fill="#156319" fill-opacity="1.000000" fill-rule="evenodd"/>
	<path id="Ellipse 128" d="M13.8 7.09C15.58 6.15 17.3 3.32 17.3 3.32C13.26 4.35 10.61 6.39 9.79 7.28C9.79 7.28 12.02 8.03 13.8 7.09Z" fill="#79C01E" fill-opacity="1.000000" fill-rule="evenodd"/>
	<path id="Vector 217" d="M6.04 5.65C6.77 5.95 8.56 8.81 9.05 10.26C9.09 10.38 9.43 10.25 9.39 10.14C9.19 8.81 8.38 5.6 7.49 4.53C6.44 4.59 6.04 5.36 6.04 5.65Z" fill="#8C5936" fill-opacity="1.000000" fill-rule="evenodd"/>
	<path id="Vector 217 (Stroke)" d="M5.76 6.31C5.5 6.19 5.32 5.93 5.33 5.64C5.33 5.26 5.54 4.83 5.86 4.5C6.21 4.14 6.74 3.86 7.44 3.81C7.67 3.8 7.89 3.9 8.03 4.07C8.32 4.42 8.57 4.89 8.79 5.38C9 5.89 9.2 6.46 9.38 7.03C9.72 8.14 9.98 9.29 10.09 10C10.18 10.4 9.92 10.68 9.84 10.75C9.73 10.86 9.59 10.92 9.49 10.96C9.39 10.99 9.23 11.03 9.06 11.01C8.89 11 8.52 10.9 8.38 10.49C8.16 9.84 7.62 8.82 7.03 7.91C6.74 7.46 6.46 7.05 6.2 6.75C6.08 6.6 5.97 6.48 5.88 6.4C5.8 6.33 5.76 6.31 5.76 6.31C5.76 6.31 5.76 6.31 5.76 6.31ZM9.39 10.14C9.39 10.14 9.39 10.14 9.39 10.14C9.37 9.99 9.34 9.81 9.3 9.62C9.24 9.3 9.16 8.93 9.06 8.55C8.7 7.08 8.11 5.28 7.49 4.53C6.96 4.56 6.59 4.77 6.36 5.01C6.32 5.06 6.28 5.1 6.25 5.15C6.1 5.34 6.04 5.53 6.04 5.65C6.57 5.87 7.64 7.41 8.39 8.8C8.56 9.13 8.72 9.44 8.84 9.73C8.92 9.9 8.98 10.05 9.03 10.2C9.04 10.22 9.05 10.24 9.05 10.26C9.09 10.38 9.43 10.25 9.39 10.14ZM8.68 10.23C8.69 10.28 8.7 10.32 8.71 10.37C8.7 10.33 8.69 10.29 8.69 10.25C8.68 10.25 8.68 10.24 8.68 10.23Z" fill="#583A24" fill-opacity="1.000000" fill-rule="evenodd"/>
	<path id="Ellipse 142" d="M7.72 4.65C7.91 4.92 7.69 5.4 7.23 5.73C6.77 6.07 6.24 6.12 6.05 5.86C5.86 5.59 6.08 5.1 6.54 4.77C7 4.44 7.53 4.38 7.72 4.65Z" fill="#C27A49" fill-opacity="1.000000" fill-rule="evenodd"/>
	<path id="Ellipse 127" d="M8 12.61C8.6 13.63 7.84 15.18 6.31 16.08C4.78 16.97 3.05 16.86 2.46 15.84C1.86 14.82 2.62 13.27 4.15 12.38C5.69 11.48 7.41 11.59 8 12.61Z" fill="#FFC671" fill-opacity="1.000000" fill-rule="evenodd"/>
	<path id="Vector 219 (Stroke)" d="M5.02 13.5C5.23 13.83 5.13 14.27 4.8 14.48C4.54 14.64 4.35 14.84 4.2 15.07C3.98 15.4 3.54 15.49 3.21 15.28C2.88 15.06 2.79 14.62 3 14.29C3.27 13.88 3.61 13.54 4.03 13.28C4.37 13.07 4.81 13.17 5.02 13.5Z" fill="#FFFFFF" fill-opacity="1.000000" fill-rule="evenodd"/>
	<mask id="mask_3_445" fill="white">
		<path id="unlock 解锁" d="M17.875 21.75C17.875 20.7834 17.0356 20 16 20C14.9644 20 14.125 20.7834 14.125 21.75L14.125 22.45L13.375 22.45C13.168 22.45 13 22.6067 13 22.8L13 26.6499C13 26.8433 13.168 27 13.375 27L18.625 27C18.832 27 19 26.8433 19 26.6499L19 22.8C19 22.6067 18.832 22.45 18.625 22.45L14.875 22.45L14.875 21.75C14.875 21.1702 15.3787 20.7 16 20.7C16.6213 20.7 17.125 21.1702 17.125 21.75L17.875 21.75Z" clip-rule="evenodd" fill="" fill-opacity="1.000000" fill-rule="evenodd"/>
	</mask>
	<path id="unlock 解锁" d="M17.875 21.75C17.875 20.7834 17.0356 20 16 20C14.9644 20 14.125 20.7834 14.125 21.75L14.125 22.45L13.375 22.45C13.168 22.45 13 22.6067 13 22.8L13 26.6499C13 26.8433 13.168 27 13.375 27L18.625 27C18.832 27 19 26.8433 19 26.6499L19 22.8C19 22.6067 18.832 22.45 18.625 22.45L14.875 22.45L14.875 21.75C14.875 21.1702 15.3787 20.7 16 20.7C16.6213 20.7 17.125 21.1702 17.125 21.75L17.875 21.75Z" clip-rule="evenodd" fill="#518E04" fill-opacity="1.000000" fill-rule="evenodd" mask="url(#mask_3_445)"/>
	<path id="unlock 解锁" d="" fill="#979797" fill-opacity="0.000000" fill-rule="nonzero"/>
</svg>
